<svg width="355" height="73" viewBox="0 0 355 73" fill="none" xmlns="http://www.w3.org/2000/svg">
<g clip-path="url(#clip0_40_22)">
<path d="M14.4 6C6.525 6 3.6 8.60156 3.6 15.6V55.2C3.6 56.8313 4.07813 58.0078 4.8 58.875V62.4C4.8 64.3828 6.41719 66 8.4 66H13.2C15.1828 66 16.8 64.3828 16.8 62.4V61.2H43.2V62.4C43.2 64.3828 44.8172 66 46.8 66H51.6C53.5828 66 55.2 64.3828 55.2 62.4V58.875C55.9219 58.0078 56.4 56.8313 56.4 55.2V16.8C56.4 11.5734 55.7531 6 48 6H14.4ZM18 10.8H43.2C43.8656 10.8 44.4 11.3391 44.4 12V14.4C44.4 15.0609 43.8656 15.6 43.2 15.6H18C17.3391 15.6 16.8 15.0609 16.8 14.4V12C16.8 11.3391 17.3391 10.8 18 10.8ZM13.2 19.2H46.8C49.2 19.2 50.4 20.4 50.4 22.8V37.2C50.4 39.6 48.0563 40.725 46.8 40.725L13.2 40.8C10.8 40.8 9.6 39.6 9.6 37.2V22.8C9.6 20.4 10.8 19.2 13.2 19.2ZM2.4 20.4C1.07813 20.4 0 21.4781 0 22.8V32.4C0 33.7219 1.07813 34.8 2.4 34.8V20.4ZM57.6 20.4V34.8C58.9266 34.8 60 33.7219 60 32.4V22.8C60 21.4781 58.9266 20.4 57.6 20.4ZM13.8 46.8C16.1203 46.8 18 48.6797 18 51C18 53.3203 16.1203 55.2 13.8 55.2C11.4797 55.2 9.6 53.3203 9.6 51C9.6 48.6797 11.4797 46.8 13.8 46.8ZM46.2 46.8C48.5203 46.8 50.4 48.6797 50.4 51C50.4 53.3203 48.5203 55.2 46.2 55.2C43.8797 55.2 42 53.3203 42 51C42 48.6797 43.8797 46.8 46.2 46.8Z" fill="white"/>
</g>
<path d="M69.304 58V14.3636H86.0085C89.1619 14.3636 91.7827 14.8608 93.8707 15.8551C95.973 16.8352 97.5426 18.1776 98.5795 19.8821C99.6307 21.5866 100.156 23.5185 100.156 25.6776C100.156 27.4531 99.8153 28.973 99.1335 30.2372C98.4517 31.4872 97.5355 32.5028 96.3849 33.2841C95.2344 34.0653 93.9489 34.6264 92.5284 34.9673V35.3935C94.0767 35.4787 95.5611 35.9545 96.9815 36.821C98.4162 37.6733 99.5881 38.8807 100.497 40.4432C101.406 42.0057 101.861 43.8949 101.861 46.1108C101.861 48.3693 101.314 50.4006 100.22 52.2045C99.1264 53.9943 97.4787 55.4077 95.277 56.4446C93.0753 57.4815 90.3054 58 86.9673 58H69.304ZM77.2088 51.3949H85.7102C88.5795 51.3949 90.6463 50.848 91.9105 49.7543C93.1889 48.6463 93.8281 47.2259 93.8281 45.4929C93.8281 44.2003 93.5085 43.0355 92.8693 41.9986C92.2301 40.9474 91.321 40.1236 90.142 39.527C88.9631 38.9162 87.5568 38.6108 85.9233 38.6108H77.2088V51.3949ZM77.2088 32.9219H85.0284C86.392 32.9219 87.6207 32.6733 88.7145 32.1761C89.8082 31.6648 90.6676 30.9474 91.2926 30.0241C91.9318 29.0866 92.2514 27.9787 92.2514 26.7003C92.2514 25.0099 91.6548 23.6179 90.4616 22.5241C89.2827 21.4304 87.5284 20.8835 85.1989 20.8835H77.2088V32.9219ZM136.245 14.3636H144.15V42.8722C144.15 45.9972 143.411 48.7457 141.934 51.1179C140.471 53.4901 138.411 55.3437 135.755 56.679C133.098 58 129.995 58.6605 126.444 58.6605C122.878 58.6605 119.767 58 117.111 56.679C114.455 55.3437 112.395 53.4901 110.932 51.1179C109.469 48.7457 108.738 45.9972 108.738 42.8722V14.3636H116.642V42.2116C116.642 44.0298 117.04 45.6491 117.836 47.0696C118.645 48.4901 119.782 49.6051 121.245 50.4148C122.708 51.2102 124.441 51.608 126.444 51.608C128.446 51.608 130.179 51.2102 131.642 50.4148C133.12 49.6051 134.256 48.4901 135.051 47.0696C135.847 45.6491 136.245 44.0298 136.245 42.2116V14.3636ZM176.456 26.3594C176.257 24.4986 175.419 23.0497 173.942 22.0128C172.479 20.9759 170.575 20.4574 168.232 20.4574C166.584 20.4574 165.17 20.706 163.991 21.2031C162.813 21.7003 161.911 22.375 161.286 23.2273C160.661 24.0795 160.341 25.0526 160.327 26.1463C160.327 27.0554 160.533 27.8437 160.945 28.5114C161.371 29.179 161.946 29.7472 162.67 30.2159C163.395 30.6705 164.197 31.054 165.078 31.3665C165.959 31.679 166.847 31.9418 167.741 32.1548L171.832 33.1776C173.48 33.5611 175.064 34.0795 176.584 34.733C178.118 35.3864 179.489 36.2102 180.696 37.2045C181.918 38.1989 182.884 39.3991 183.594 40.8054C184.304 42.2116 184.659 43.8594 184.659 45.7486C184.659 48.3054 184.006 50.5568 182.699 52.5028C181.392 54.4347 179.503 55.9474 177.031 57.0412C174.574 58.1207 171.598 58.6605 168.104 58.6605C164.709 58.6605 161.761 58.1349 159.261 57.0838C156.776 56.0327 154.83 54.4986 153.423 52.4815C152.031 50.4645 151.278 48.0071 151.165 45.1094H158.942C159.055 46.6293 159.524 47.8935 160.348 48.902C161.172 49.9105 162.244 50.6634 163.565 51.1605C164.901 51.6577 166.392 51.9062 168.04 51.9062C169.759 51.9062 171.264 51.6506 172.557 51.1392C173.864 50.6136 174.886 49.8892 175.625 48.9659C176.364 48.0284 176.74 46.9347 176.754 45.6847C176.74 44.5483 176.406 43.6108 175.753 42.8722C175.099 42.1193 174.183 41.4943 173.004 40.9972C171.839 40.4858 170.476 40.0312 168.913 39.6335L163.949 38.3551C160.355 37.4318 157.514 36.0327 155.426 34.1577C153.352 32.2685 152.315 29.7614 152.315 26.6364C152.315 24.0653 153.011 21.8139 154.403 19.8821C155.81 17.9503 157.72 16.4517 160.135 15.3864C162.55 14.3068 165.284 13.767 168.338 13.767C171.435 13.767 174.148 14.3068 176.477 15.3864C178.821 16.4517 180.661 17.9361 181.996 19.8395C183.331 21.7287 184.02 23.902 184.062 26.3594H176.456Z" fill="white"/>
<path d="M192.304 58V14.3636H200.209V32.8366H220.429V14.3636H228.355V58H220.429V39.4631H200.209V58H192.304ZM236.952 58V14.3636H265.333V20.9901H244.857V32.8366H263.863V39.4631H244.857V51.3736H265.504V58H236.952ZM273.398 58V14.3636H289.761C293.114 14.3636 295.926 14.946 298.199 16.1108C300.486 17.2756 302.212 18.9091 303.376 21.0114C304.555 23.0994 305.145 25.5355 305.145 28.3196C305.145 31.1179 304.548 33.5469 303.355 35.6065C302.176 37.652 300.436 39.2358 298.135 40.358C295.834 41.4659 293.007 42.0199 289.655 42.0199H278V35.4574H288.589C290.55 35.4574 292.155 35.1875 293.405 34.6477C294.655 34.0937 295.578 33.2912 296.175 32.2401C296.786 31.1747 297.091 29.8679 297.091 28.3196C297.091 26.7713 296.786 25.4503 296.175 24.3565C295.564 23.2486 294.634 22.4105 293.384 21.8423C292.134 21.2599 290.521 20.9688 288.547 20.9688H281.303V58H273.398ZM295.94 38.2273L306.743 58H297.922L287.311 38.2273H295.94ZM351.413 36.1818C351.413 40.8835 350.532 44.9105 348.771 48.2628C347.023 51.6009 344.637 54.1577 341.612 55.9332C338.6 57.7088 335.184 58.5966 331.363 58.5966C327.542 58.5966 324.119 57.7088 321.093 55.9332C318.082 54.1435 315.695 51.5795 313.934 48.2415C312.187 44.8892 311.313 40.8693 311.313 36.1818C311.313 31.4801 312.187 27.4602 313.934 24.1222C315.695 20.7699 318.082 18.206 321.093 16.4304C324.119 14.6548 327.542 13.767 331.363 13.767C335.184 13.767 338.6 14.6548 341.612 16.4304C344.637 18.206 347.023 20.7699 348.771 24.1222C350.532 27.4602 351.413 31.4801 351.413 36.1818ZM343.465 36.1818C343.465 32.8722 342.947 30.081 341.91 27.8082C340.887 25.5213 339.467 23.7955 337.648 22.6307C335.83 21.4517 333.735 20.8622 331.363 20.8622C328.991 20.8622 326.896 21.4517 325.077 22.6307C323.259 23.7955 321.832 25.5213 320.795 27.8082C319.772 30.081 319.261 32.8722 319.261 36.1818C319.261 39.4915 319.772 42.2898 320.795 44.5767C321.832 46.8494 323.259 48.5753 325.077 49.7543C326.896 50.919 328.991 51.5014 331.363 51.5014C333.735 51.5014 335.83 50.919 337.648 49.7543C339.467 48.5753 340.887 46.8494 341.91 44.5767C342.947 42.2898 343.465 39.4915 343.465 36.1818Z" fill="black"/>
<defs>
<clipPath id="clip0_40_22">
<rect width="60" height="60" fill="white" transform="translate(0 6)"/>
</clipPath>
</defs>
</svg>
